<svg width="41" height="60" viewBox="0 0 41 60" fill="none" xmlns="http://www.w3.org/2000/svg">
<mask id="mask0_2540_154" style="mask-type:luminance" maskUnits="userSpaceOnUse" x="0" y="0" width="41" height="60">
<path d="M40.447 0.833344H0.6875V59.1667H40.447V0.833344Z" fill="white"/>
</mask>
<g mask="url(#mask0_2540_154)">
<path d="M5.48122 10.5514C5.36148 10.9124 5.27723 11.284 5.22957 11.661C1.93934 12.7706 0.574182 15.0458 0.693712 18.923V59.1667H12.4958V4.46124C9.14261 6.1256 6.28648 8.09541 5.48122 10.5514Z" fill="#BF945D"/>
<path d="M35.6597 10.5514C35.7773 10.9126 35.8594 11.2842 35.905 11.661C39.1952 12.7706 40.5667 15.0458 40.4408 18.923V59.1667H28.6577V4.46124C32.0738 6.1256 34.8669 8.09541 35.6786 10.5514" fill="#BF945D"/>
<path d="M20.6927 0.833344C18.6836 1.55447 16.7213 2.39758 14.8169 3.35791V59.1667H26.3673V3.29557C24.5265 2.37352 22.6364 1.55157 20.7053 0.833344" fill="#BF945D"/>
<path d="M8.82824 52.0854L5.22975 42.2427H4.29868H3.55004H3.30469V53.8122H4.29868V44.0876L7.84055 53.8122H8.82824H9.82223V42.2427H8.82824V52.0854Z" fill="white"/>
<path d="M38.1444 42.2427H37.1505V50.1778C37.1505 51.1628 36.8988 52.9456 35.2632 52.9456C34.982 52.974 34.6978 52.9317 34.4372 52.8228C34.1766 52.7137 33.9479 52.5416 33.7721 52.3222C33.4015 51.6428 33.2294 50.8743 33.2752 50.1032V42.2427H31.5325V50.5458C31.5011 51.083 31.5435 51.6219 31.6584 52.1478C31.7916 52.5181 32.0067 52.8548 32.2876 53.1325C32.6182 53.4349 32.9937 53.6851 33.4012 53.8743C33.844 54.0119 34.3026 54.0937 34.7661 54.1175C35.8924 54.1175 36.7604 53.8743 37.1946 53.2573C37.7236 52.5236 37.9854 51.6332 37.9369 50.7327V42.2427H38.1444Z" fill="white"/>
<path d="M22.4293 47.8404C23.1779 47.4725 23.6875 46.5937 23.6875 45.1974C23.6875 42.4297 21.2654 42.3049 20.0198 42.3049H17.2769V53.8868H20.133C21.4982 53.8868 24.046 53.8868 24.046 50.6204C24.046 48.9624 23.2974 48.2206 22.4293 47.8529M19.139 43.1154H20.133C21.0012 43.1154 22.121 43.1154 22.121 45.2099C22.121 47.5473 21.0012 47.4228 20.133 47.4228H19.139V43.1154ZM20.0701 53.089H19.0761V48.3515H20.0701C21.0641 48.3515 22.1839 48.3515 22.1839 50.6892C22.1839 53.0266 21.0641 53.0704 20.0701 53.0704V53.089Z" fill="white"/>
</g>
</svg>
