<svg width="24" height="24" viewBox="0 0 24 24" fill="none" xmlns="http://www.w3.org/2000/svg">
<path fill-rule="evenodd" clip-rule="evenodd" d="M12 0C5.4 0 0 5.4 0 12C0 18.6 5.4 24 12 24C18.6 24 24 18.6 24 12C24 5.4 18.6 0 12 0ZM12 21.5C10.8 21.5 9.4 19.5 8.7 16.5H15.3C14.6 19.5 13.2 21.5 12 21.5ZM8.4 14.5C8.2 12.8 8.2 11.2 8.4 9.5H15.6C15.8 11.2 15.8 12.8 15.6 14.5H8.4ZM2 12C2 11.2 2.1 10.3 2.3 9.5H6.3C6.2 10.3 6.2 11.1 6.2 12C6.2 12.9 6.3 13.7 6.3 14.5H2.3C2.1 13.7 2 12.8 2 12ZM12 2.5C13.2 2.5 14.6 4.5 15.3 7.5H8.7C9.4 4.5 10.8 2.5 12 2.5ZM17.6 9.5H21.6C22 11.1 22 12.9 21.6 14.5H17.6C17.7 13.7 17.7 12.9 17.7 12C17.7 11.1 17.7 10.3 17.6 9.5ZM20.9 7.5H17.3C17 5.8 16.3 4.1 15.4 2.6C17.8 3.5 19.8 5.2 20.9 7.5ZM8.6 2.6C7.6 4.1 7 5.8 6.7 7.5H3.1C4.2 5.2 6.2 3.5 8.6 2.6ZM3.1 16.5H6.7C7 18.2 7.7 19.9 8.6 21.4C6.2 20.5 4.2 18.8 3.1 16.5ZM15.4 21.4C16.4 19.9 17 18.3 17.3 16.5H20.9C19.8 18.8 17.8 20.5 15.4 21.4Z" fill="#262A38"/>
</svg>
