<svg width="24" height="25" viewBox="0 0 24 25" fill="none" xmlns="http://www.w3.org/2000/svg">
<path fill-rule="evenodd" clip-rule="evenodd" d="M12 0.5C5.4 0.5 0 5.9 0 12.5C0 19.1 5.4 24.5 12 24.5C18.6 24.5 24 19.1 24 12.5C24 5.9 18.6 0.5 12 0.5ZM12 22C10.8 22 9.4 20 8.7 17H15.3C14.6 20 13.2 22 12 22ZM8.4 15C8.2 13.3 8.2 11.7 8.4 10H15.6C15.8 11.7 15.8 13.3 15.6 15H8.4ZM2 12.5C2 11.7 2.1 10.8 2.3 10H6.3C6.2 10.8 6.2 11.6 6.2 12.5C6.2 13.4 6.3 14.2 6.3 15H2.3C2.1 14.2 2 13.3 2 12.5ZM12 3C13.2 3 14.6 5 15.3 8H8.7C9.4 5 10.8 3 12 3ZM17.6 10H21.6C22 11.6 22 13.4 21.6 15H17.6C17.7 14.2 17.7 13.4 17.7 12.5C17.7 11.6 17.7 10.8 17.6 10ZM20.9 8H17.3C17 6.3 16.3 4.6 15.4 3.1C17.8 4 19.8 5.7 20.9 8ZM8.6 3.1C7.6 4.6 7 6.3 6.7 8H3.1C4.2 5.7 6.2 4 8.6 3.1ZM3.1 17H6.7C7 18.7 7.7 20.4 8.6 21.9C6.2 21 4.2 19.3 3.1 17ZM15.4 21.9C16.4 20.4 17 18.8 17.3 17H20.9C19.8 19.3 17.8 21 15.4 21.9Z" fill="#BF945D"/>
</svg>
