<svg width="40" height="40" viewBox="0 0 40 40" fill="none" xmlns="http://www.w3.org/2000/svg">
<path d="M25.8333 7.91663C23.4435 7.91663 21.1073 8.6253 19.1202 9.95303C17.1331 11.2808 15.5844 13.1679 14.6698 15.3759C13.7552 17.5838 13.5159 20.0134 13.9822 22.3573C14.4484 24.7012 15.5992 26.8543 17.2891 28.5442C18.979 30.2341 21.1321 31.3849 23.476 31.8511C25.8199 32.3174 28.2495 32.0781 30.4574 31.1635C32.6654 30.2489 34.5525 28.7002 35.8803 26.7131C37.208 24.726 37.9167 22.3898 37.9167 20C37.9123 16.7966 36.6378 13.7257 34.3727 11.4606C32.1076 9.19551 29.0367 7.92104 25.8333 7.91663ZM29.6333 23.8C29.399 24.034 29.0813 24.1655 28.75 24.1655C28.4188 24.1655 28.101 24.034 27.8667 23.8L25 20.8833C24.7655 20.6491 24.6336 20.3314 24.6333 20V15C24.6333 14.6684 24.765 14.3505 24.9995 14.1161C25.2339 13.8817 25.5518 13.75 25.8833 13.75C26.2149 13.75 26.5328 13.8817 26.7672 14.1161C27.0016 14.3505 27.1333 14.6684 27.1333 15V19.4833L29.6833 22.0333C29.9109 22.2742 30.0335 22.5957 30.0241 22.927C30.0147 23.2583 29.8742 23.5723 29.6333 23.8Z" fill="#B88F5A"/>
<path d="M25.8333 7.91663C23.4435 7.91663 21.1073 8.6253 19.1202 9.95303C17.1331 11.2808 15.5844 13.1679 14.6698 15.3759C13.7552 17.5838 13.5159 20.0134 13.9822 22.3573C14.4484 24.7012 15.5992 26.8543 17.2891 28.5442C18.979 30.2341 21.1321 31.3849 23.476 31.8511C25.8199 32.3174 28.2495 32.0781 30.4574 31.1635C32.6654 30.2489 34.5525 28.7002 35.8803 26.7131C37.208 24.726 37.9167 22.3898 37.9167 20C37.9123 16.7966 36.6378 13.7257 34.3727 11.4606C32.1076 9.19551 29.0367 7.92104 25.8333 7.91663ZM29.6333 23.8C29.399 24.034 29.0813 24.1655 28.75 24.1655C28.4188 24.1655 28.101 24.034 27.8667 23.8L25 20.8833C24.7655 20.6491 24.6336 20.3314 24.6333 20V15C24.6333 14.6684 24.765 14.3505 24.9995 14.1161C25.2339 13.8817 25.5518 13.75 25.8833 13.75C26.2149 13.75 26.5328 13.8817 26.7672 14.1161C27.0016 14.3505 27.1333 14.6684 27.1333 15V19.4833L29.6833 22.0333C29.9109 22.2742 30.0335 22.5957 30.0241 22.927C30.0147 23.2583 29.8742 23.5723 29.6333 23.8Z" fill="url(#paint0_radial_2561_990)"/>
<path d="M10.8335 21.25H3.3335C3.00198 21.25 2.68403 21.1183 2.44961 20.8839C2.21519 20.6495 2.0835 20.3315 2.0835 20C2.0835 19.6685 2.21519 19.3505 2.44961 19.1161C2.68403 18.8817 3.00198 18.75 3.3335 18.75H10.8335C11.165 18.75 11.483 18.8817 11.7174 19.1161C11.9518 19.3505 12.0835 19.6685 12.0835 20C12.0835 20.3315 11.9518 20.6495 11.7174 20.8839C11.483 21.1183 11.165 21.25 10.8335 21.25Z" fill="#B88F5A"/>
<path d="M10.8335 21.25H3.3335C3.00198 21.25 2.68403 21.1183 2.44961 20.8839C2.21519 20.6495 2.0835 20.3315 2.0835 20C2.0835 19.6685 2.21519 19.3505 2.44961 19.1161C2.68403 18.8817 3.00198 18.75 3.3335 18.75H10.8335C11.165 18.75 11.483 18.8817 11.7174 19.1161C11.9518 19.3505 12.0835 19.6685 12.0835 20C12.0835 20.3315 11.9518 20.6495 11.7174 20.8839C11.483 21.1183 11.165 21.25 10.8335 21.25Z" fill="url(#paint1_radial_2561_990)"/>
<path d="M12.5002 14.5833H8.3335C8.00198 14.5833 7.68403 14.4516 7.44961 14.2171C7.21519 13.9827 7.0835 13.6648 7.0835 13.3333C7.0835 13.0017 7.21519 12.6838 7.44961 12.4494C7.68403 12.2149 8.00198 12.0833 8.3335 12.0833H12.5002C12.8317 12.0833 13.1496 12.2149 13.384 12.4494C13.6185 12.6838 13.7502 13.0017 13.7502 13.3333C13.7502 13.6648 13.6185 13.9827 13.384 14.2171C13.1496 14.4516 12.8317 14.5833 12.5002 14.5833Z" fill="#B88F5A"/>
<path d="M12.5002 14.5833H8.3335C8.00198 14.5833 7.68403 14.4516 7.44961 14.2171C7.21519 13.9827 7.0835 13.6648 7.0835 13.3333C7.0835 13.0017 7.21519 12.6838 7.44961 12.4494C7.68403 12.2149 8.00198 12.0833 8.3335 12.0833H12.5002C12.8317 12.0833 13.1496 12.2149 13.384 12.4494C13.6185 12.6838 13.7502 13.0017 13.7502 13.3333C13.7502 13.6648 13.6185 13.9827 13.384 14.2171C13.1496 14.4516 12.8317 14.5833 12.5002 14.5833Z" fill="url(#paint2_radial_2561_990)"/>
<path d="M12.5002 27.9166H8.3335C8.00198 27.9166 7.68403 27.7849 7.44961 27.5505C7.21519 27.3161 7.0835 26.9981 7.0835 26.6666C7.0835 26.3351 7.21519 26.0172 7.44961 25.7827C7.68403 25.5483 8.00198 25.4166 8.3335 25.4166H12.5002C12.8317 25.4166 13.1496 25.5483 13.384 25.7827C13.6185 26.0172 13.7502 26.3351 13.7502 26.6666C13.7502 26.9981 13.6185 27.3161 13.384 27.5505C13.1496 27.7849 12.8317 27.9166 12.5002 27.9166Z" fill="#B88F5A"/>
<path d="M12.5002 27.9166H8.3335C8.00198 27.9166 7.68403 27.7849 7.44961 27.5505C7.21519 27.3161 7.0835 26.9981 7.0835 26.6666C7.0835 26.3351 7.21519 26.0172 7.44961 25.7827C7.68403 25.5483 8.00198 25.4166 8.3335 25.4166H12.5002C12.8317 25.4166 13.1496 25.5483 13.384 25.7827C13.6185 26.0172 13.7502 26.3351 13.7502 26.6666C13.7502 26.9981 13.6185 27.3161 13.384 27.5505C13.1496 27.7849 12.8317 27.9166 12.5002 27.9166Z" fill="url(#paint3_radial_2561_990)"/>
<defs>
<radialGradient id="paint0_radial_2561_990" cx="0" cy="0" r="1" gradientUnits="userSpaceOnUse" gradientTransform="translate(32.5512 30) rotate(-123.251) scale(31.903 43.399)">
<stop stop-color="white" stop-opacity="0"/>
<stop offset="1" stop-color="white" stop-opacity="0.35"/>
</radialGradient>
<radialGradient id="paint1_radial_2561_990" cx="0" cy="0" r="1" gradientUnits="userSpaceOnUse" gradientTransform="translate(9.86329 21.0345) rotate(-159.128) scale(7.74671 7.6507)">
<stop stop-color="white" stop-opacity="0"/>
<stop offset="1" stop-color="white" stop-opacity="0.35"/>
</radialGradient>
<radialGradient id="paint2_radial_2561_990" cx="0" cy="0" r="1" gradientUnits="userSpaceOnUse" gradientTransform="translate(12.27 14.3677) rotate(-150.233) scale(5.55911 7.10758)">
<stop stop-color="white" stop-opacity="0"/>
<stop offset="1" stop-color="white" stop-opacity="0.35"/>
</radialGradient>
<radialGradient id="paint3_radial_2561_990" cx="0" cy="0" r="1" gradientUnits="userSpaceOnUse" gradientTransform="translate(12.27 27.7011) rotate(-150.233) scale(5.55911 7.10758)">
<stop stop-color="white" stop-opacity="0"/>
<stop offset="1" stop-color="white" stop-opacity="0.35"/>
</radialGradient>
</defs>
</svg>
