<svg width="24" height="36" viewBox="0 0 24 36" fill="none" xmlns="http://www.w3.org/2000/svg">
<path d="M17.7563 21.225H16.6563V17.15C14.9142 17.2229 13.1887 16.785 11.6921 15.8902C10.1955 14.9953 8.99315 13.6826 8.2328 12.1134C7.47246 10.5443 7.18732 8.78709 7.41247 7.05801C7.63762 5.32893 8.36323 3.70336 9.50006 2.38123H6.15006C5.38045 2.38319 4.64302 2.69021 4.09941 3.235C3.5558 3.77978 3.25037 4.51787 3.25006 5.28748V21.225H2.15006C1.748 21.2256 1.35418 21.339 1.01334 21.5523C0.672495 21.7655 0.398292 22.0701 0.221879 22.4314C0.0454664 22.7926 -0.0260844 23.1962 0.0153556 23.5961C0.0567957 23.996 0.209565 24.3763 0.456308 24.6937L8.26256 34.675C8.46313 34.9319 8.71964 35.1398 9.01259 35.2827C9.30554 35.4257 9.62722 35.5 9.95318 35.5C10.2792 35.5 10.6008 35.4257 10.8938 35.2827C11.1867 35.1398 11.4432 34.9319 11.6438 34.675L19.4501 24.6875C19.6909 24.3689 19.8387 23.9898 19.8771 23.5923C19.9155 23.1948 19.8429 22.7944 19.6674 22.4356C19.4919 22.0769 19.2204 21.7738 18.883 21.5601C18.5457 21.3464 18.1556 21.2304 17.7563 21.225Z" fill="#B88F5A"/>
<path d="M17.7563 21.225H16.6563V17.15C14.9142 17.2229 13.1887 16.785 11.6921 15.8902C10.1955 14.9953 8.99315 13.6826 8.2328 12.1134C7.47246 10.5443 7.18732 8.78709 7.41247 7.05801C7.63762 5.32893 8.36323 3.70336 9.50006 2.38123H6.15006C5.38045 2.38319 4.64302 2.69021 4.09941 3.235C3.5558 3.77978 3.25037 4.51787 3.25006 5.28748V21.225H2.15006C1.748 21.2256 1.35418 21.339 1.01334 21.5523C0.672495 21.7655 0.398292 22.0701 0.221879 22.4314C0.0454664 22.7926 -0.0260844 23.1962 0.0153556 23.5961C0.0567957 23.996 0.209565 24.3763 0.456308 24.6937L8.26256 34.675C8.46313 34.9319 8.71964 35.1398 9.01259 35.2827C9.30554 35.4257 9.62722 35.5 9.95318 35.5C10.2792 35.5 10.6008 35.4257 10.8938 35.2827C11.1867 35.1398 11.4432 34.9319 11.6438 34.675L19.4501 24.6875C19.6909 24.3689 19.8387 23.9898 19.8771 23.5923C19.9155 23.1948 19.8429 22.7944 19.6674 22.4356C19.4919 22.0769 19.2204 21.7738 18.883 21.5601C18.5457 21.3464 18.1556 21.2304 17.7563 21.225Z" fill="url(#paint0_radial_2561_985)"/>
<path d="M16.2937 0.5C14.2505 0.502052 12.2915 1.31462 10.8468 2.75937C9.40202 4.20413 8.58945 6.16305 8.5874 8.20625C9.0096 18.4298 23.5793 18.4269 23.9999 8.20619C23.9979 6.163 23.1853 4.20409 21.7405 2.75934C20.2958 1.3146 18.3368 0.502045 16.2937 0.5ZM19.0437 11.7375C18.5151 11.7309 18.0104 11.5163 17.6389 11.1402C17.2675 10.764 17.0592 10.2567 17.0592 9.72809C17.0592 9.19947 17.2675 8.69215 17.639 8.31604C18.0104 7.93993 18.5151 7.72533 19.0437 7.71875C19.5723 7.72535 20.077 7.93996 20.4484 8.31608C20.8199 8.6922 21.0282 9.19954 21.0282 9.72816C21.0281 10.2568 20.8198 10.7641 20.4484 11.1402C20.0769 11.5163 19.5722 11.7309 19.0437 11.7375ZM13.5437 4.68125C14.072 4.68701 14.5767 4.90092 14.9482 5.27654C15.3198 5.65217 15.5282 6.15919 15.5282 6.68753C15.5282 7.21587 15.3197 7.72289 14.9482 8.0985C14.5766 8.47411 14.0719 8.68801 13.5436 8.69375C13.0153 8.68799 12.5106 8.47408 12.139 8.09846C11.7675 7.72283 11.5591 7.21581 11.5591 6.68747C11.5591 6.15913 11.7675 5.65211 12.1391 5.2765C12.5106 4.90089 13.0153 4.68699 13.5437 4.68125ZM13.4062 11.6188C13.2827 11.6162 13.1627 11.5775 13.0611 11.5073C12.9595 11.4371 12.8809 11.3385 12.8349 11.2239C12.7889 11.1093 12.7777 10.9837 12.8026 10.8628C12.8275 10.7418 12.8874 10.6309 12.9749 10.5437L18.7437 4.96875C18.8638 4.85766 19.0226 4.79805 19.1861 4.80268C19.3497 4.80732 19.5049 4.87583 19.6185 4.99354C19.7322 5.11126 19.7951 5.2688 19.794 5.4324C19.7929 5.596 19.7277 5.75264 19.6124 5.86875L13.8437 11.4438C13.7244 11.554 13.5686 11.6163 13.4062 11.6188Z" fill="#B88F5A"/>
<path d="M16.2937 0.5C14.2505 0.502052 12.2915 1.31462 10.8468 2.75937C9.40202 4.20413 8.58945 6.16305 8.5874 8.20625C9.0096 18.4298 23.5793 18.4269 23.9999 8.20619C23.9979 6.163 23.1853 4.20409 21.7405 2.75934C20.2958 1.3146 18.3368 0.502045 16.2937 0.5ZM19.0437 11.7375C18.5151 11.7309 18.0104 11.5163 17.6389 11.1402C17.2675 10.764 17.0592 10.2567 17.0592 9.72809C17.0592 9.19947 17.2675 8.69215 17.639 8.31604C18.0104 7.93993 18.5151 7.72533 19.0437 7.71875C19.5723 7.72535 20.077 7.93996 20.4484 8.31608C20.8199 8.6922 21.0282 9.19954 21.0282 9.72816C21.0281 10.2568 20.8198 10.7641 20.4484 11.1402C20.0769 11.5163 19.5722 11.7309 19.0437 11.7375ZM13.5437 4.68125C14.072 4.68701 14.5767 4.90092 14.9482 5.27654C15.3198 5.65217 15.5282 6.15919 15.5282 6.68753C15.5282 7.21587 15.3197 7.72289 14.9482 8.0985C14.5766 8.47411 14.0719 8.68801 13.5436 8.69375C13.0153 8.68799 12.5106 8.47408 12.139 8.09846C11.7675 7.72283 11.5591 7.21581 11.5591 6.68747C11.5591 6.15913 11.7675 5.65211 12.1391 5.2765C12.5106 4.90089 13.0153 4.68699 13.5437 4.68125ZM13.4062 11.6188C13.2827 11.6162 13.1627 11.5775 13.0611 11.5073C12.9595 11.4371 12.8809 11.3385 12.8349 11.2239C12.7889 11.1093 12.7777 10.9837 12.8026 10.8628C12.8275 10.7418 12.8874 10.6309 12.9749 10.5437L18.7437 4.96875C18.8638 4.85766 19.0226 4.79805 19.1861 4.80268C19.3497 4.80732 19.5049 4.87583 19.6185 4.99354C19.7322 5.11126 19.7951 5.2688 19.794 5.4324C19.7929 5.596 19.7277 5.75264 19.6124 5.86875L13.8437 11.4438C13.7244 11.554 13.5686 11.6163 13.4062 11.6188Z" fill="url(#paint1_radial_2561_985)"/>
<path d="M13.544 7.44377C13.7428 7.44109 13.9325 7.36023 14.0722 7.21869C14.2118 7.07716 14.2901 6.88633 14.2901 6.68751C14.2901 6.48869 14.2118 6.29786 14.0722 6.15633C13.9325 6.0148 13.7428 5.93395 13.544 5.93127C13.3452 5.93396 13.1554 6.01482 13.0158 6.15636C12.8761 6.29789 12.7978 6.48872 12.7979 6.68754C12.7979 6.88636 12.8761 7.07719 13.0158 7.21872C13.1554 7.36025 13.3452 7.4411 13.544 7.44377Z" fill="#B88F5A"/>
<path d="M13.544 7.44377C13.7428 7.44109 13.9325 7.36023 14.0722 7.21869C14.2118 7.07716 14.2901 6.88633 14.2901 6.68751C14.2901 6.48869 14.2118 6.29786 14.0722 6.15633C13.9325 6.0148 13.7428 5.93395 13.544 5.93127C13.3452 5.93396 13.1554 6.01482 13.0158 6.15636C12.8761 6.29789 12.7978 6.48872 12.7979 6.68754C12.7979 6.88636 12.8761 7.07719 13.0158 7.21872C13.1554 7.36025 13.3452 7.4411 13.544 7.44377Z" fill="url(#paint2_radial_2561_985)"/>
<path d="M19.0437 8.96875C18.8448 8.97245 18.6552 9.05408 18.5158 9.19609C18.3764 9.3381 18.2983 9.52914 18.2983 9.72813C18.2983 9.92711 18.3764 10.1182 18.5158 10.2602C18.6552 10.4022 18.8448 10.4838 19.0437 10.4875C19.2427 10.4838 19.4322 10.4022 19.5716 10.2602C19.711 10.1182 19.7891 9.92711 19.7891 9.72813C19.7891 9.52914 19.711 9.3381 19.5716 9.19609C19.4322 9.05408 19.2427 8.97245 19.0437 8.96875Z" fill="#B88F5A"/>
<path d="M19.0437 8.96875C18.8448 8.97245 18.6552 9.05408 18.5158 9.19609C18.3764 9.3381 18.2983 9.52914 18.2983 9.72813C18.2983 9.92711 18.3764 10.1182 18.5158 10.2602C18.6552 10.4022 18.8448 10.4838 19.0437 10.4875C19.2427 10.4838 19.4322 10.4022 19.5716 10.2602C19.711 10.1182 19.7891 9.92711 19.7891 9.72813C19.7891 9.52914 19.711 9.3381 19.5716 9.19609C19.4322 9.05408 19.2427 8.97245 19.0437 8.96875Z" fill="url(#paint3_radial_2561_985)"/>
<defs>
<radialGradient id="paint0_radial_2561_985" cx="0" cy="0" r="1" gradientUnits="userSpaceOnUse" gradientTransform="translate(12.8893 28.7727) rotate(-141.738) scale(29.8447 21.2773)">
<stop stop-color="white" stop-opacity="0"/>
<stop offset="1" stop-color="white" stop-opacity="0.35"/>
</radialGradient>
<radialGradient id="paint1_radial_2561_985" cx="0" cy="0" r="1" gradientUnits="userSpaceOnUse" gradientTransform="translate(18.5756 12.7502) rotate(-154.72) scale(20.0886 11.3737)">
<stop stop-color="white" stop-opacity="0"/>
<stop offset="1" stop-color="white" stop-opacity="0.35"/>
</radialGradient>
<radialGradient id="paint2_radial_2561_985" cx="0" cy="0" r="1" gradientUnits="userSpaceOnUse" gradientTransform="translate(13.7649 7.13655) rotate(-154.363) scale(1.95076 1.11572)">
<stop stop-color="white" stop-opacity="0"/>
<stop offset="1" stop-color="white" stop-opacity="0.35"/>
</radialGradient>
<radialGradient id="paint3_radial_2561_985" cx="0" cy="0" r="1" gradientUnits="userSpaceOnUse" gradientTransform="translate(19.2644 10.179) rotate(-154.249) scale(1.95071 1.11925)">
<stop stop-color="white" stop-opacity="0"/>
<stop offset="1" stop-color="white" stop-opacity="0.35"/>
</radialGradient>
</defs>
</svg>
