<svg width="40" height="40" viewBox="0 0 40 40" fill="none" xmlns="http://www.w3.org/2000/svg">
<g clip-path="url(#clip0_2561_996)">
<path fill-rule="evenodd" clip-rule="evenodd" d="M4.44308 25.8859C3.03126 24.4786 1.91075 22.8068 1.14568 20.9661C0.380607 19.1254 -0.014019 17.1518 -0.0156201 15.1584C-0.0172212 13.165 0.374234 11.1909 1.13635 9.34893C1.89846 7.50697 3.01628 5.83335 4.42585 4.42382C5.83541 3.0143 7.50906 1.89653 9.35105 1.13447C11.193 0.372409 13.1672 -0.018988 15.1606 -0.0173287C17.154 -0.0156695 19.1275 0.379014 20.9682 1.14414C22.8089 1.90927 24.4807 3.02982 25.8879 4.44169C27.2998 5.84895 28.4203 7.52077 29.1853 9.3615C29.9504 11.2022 30.345 13.1758 30.3466 15.1692C30.3482 17.1626 29.9568 19.1367 29.1947 20.9787C28.4325 22.8206 27.3147 24.4942 25.9052 25.9038C24.4956 27.3133 22.8219 28.4311 20.98 29.1931C19.138 29.9552 17.1638 30.3466 15.1704 30.3449C13.177 30.3433 11.2035 29.9486 9.3628 29.1835C7.52209 28.4183 5.8503 27.2978 4.44308 25.8859ZM39.1434 39.1414C39.6909 38.5892 39.9981 37.8431 39.9981 37.0656C39.9981 36.288 39.6909 35.5419 39.1434 34.9897L29.2514 25.0977C28.682 25.9 28.0462 26.6529 27.3504 27.3484C26.6553 28.0448 25.9022 28.6808 25.0991 29.2493L34.9911 39.1414C35.5422 39.6912 36.2888 40 37.0673 40C37.8457 40 38.5923 39.6912 39.1434 39.1414ZM23.4637 7.46169C19.645 7.74849 17.2336 6.76255 16.0938 4.44661C16.0084 4.27325 15.8762 4.12726 15.7122 4.02517C15.5481 3.92308 15.3587 3.86897 15.1655 3.86897C14.9722 3.86897 14.7829 3.92308 14.6188 4.02517C14.4547 4.12726 14.3225 4.27325 14.2371 4.44661C13.0974 6.76255 10.6865 7.74849 6.86722 7.46153C6.60976 7.44242 6.35444 7.52016 6.15132 7.67953C5.9482 7.8389 5.81194 8.06839 5.76926 8.32302C5.09558 12.3657 5.72551 16.2938 7.59254 19.6831C9.26441 22.7195 11.8082 25.0965 14.7548 26.3736C14.8845 26.4301 15.0244 26.4593 15.1659 26.4593C15.3073 26.4593 15.4472 26.4301 15.5769 26.3736C18.5235 25.0965 21.0673 22.7195 22.7392 19.6831C24.6064 16.2938 25.2362 12.3657 24.5625 8.32302C24.5202 8.06809 24.384 7.83825 24.1807 7.67879C23.9773 7.51933 23.7216 7.44182 23.4639 7.46153L23.4637 7.46169ZM15.1652 24.2868C19.5028 22.1924 23.4839 16.8486 22.6496 9.57247C22.5147 9.57611 22.3811 9.57794 22.2486 9.57794C19.0564 9.57794 16.685 8.64872 15.1653 6.80692C13.5827 8.72575 11.0746 9.65247 7.6816 9.57255C6.84707 16.8486 10.8282 22.1924 15.1652 24.2868ZM19.5693 13.205C19.6537 13.0982 19.7162 12.9757 19.7533 12.8447C19.7903 12.7137 19.8011 12.5766 19.785 12.4414C19.7689 12.3062 19.7263 12.1755 19.6596 12.0568C19.5929 11.9381 19.5034 11.8338 19.3963 11.7497C19.2892 11.6657 19.1665 11.6037 19.0353 11.5672C18.9041 11.5306 18.7671 11.5204 18.6319 11.537C18.4968 11.5536 18.3662 11.5967 18.2478 11.6639C18.1294 11.7311 18.0254 11.8209 17.9418 11.9284L14.5475 16.2556L12.2642 14.2173C12.163 14.1261 12.0448 14.0559 11.9164 14.0105C11.788 13.9651 11.6519 13.9456 11.5159 13.9529C11.3799 13.9603 11.2467 13.9945 11.124 14.0535C11.0012 14.1125 10.8914 14.1951 10.8006 14.2967C10.7099 14.3983 10.6402 14.5168 10.5954 14.6454C10.5506 14.774 10.5317 14.9102 10.5397 15.0462C10.5477 15.1821 10.5824 15.3152 10.642 15.4377C10.7015 15.5601 10.7847 15.6696 10.8867 15.7599L13.9922 18.5328C14.182 18.7017 14.4272 18.7951 14.6813 18.7951C14.7117 18.7954 14.7422 18.7942 14.7725 18.7914C14.9133 18.7789 15.0501 18.7377 15.1743 18.6702C15.2986 18.6028 15.4076 18.5105 15.4948 18.3992L19.5693 13.205Z" fill="#B88F5A"/>
<path fill-rule="evenodd" clip-rule="evenodd" d="M4.44308 25.8859C3.03126 24.4786 1.91075 22.8068 1.14568 20.9661C0.380607 19.1254 -0.014019 17.1518 -0.0156201 15.1584C-0.0172212 13.165 0.374234 11.1909 1.13635 9.34893C1.89846 7.50697 3.01628 5.83335 4.42585 4.42382C5.83541 3.0143 7.50906 1.89653 9.35105 1.13447C11.193 0.372409 13.1672 -0.018988 15.1606 -0.0173287C17.154 -0.0156695 19.1275 0.379014 20.9682 1.14414C22.8089 1.90927 24.4807 3.02982 25.8879 4.44169C27.2998 5.84895 28.4203 7.52077 29.1853 9.3615C29.9504 11.2022 30.345 13.1758 30.3466 15.1692C30.3482 17.1626 29.9568 19.1367 29.1947 20.9787C28.4325 22.8206 27.3147 24.4942 25.9052 25.9038C24.4956 27.3133 22.8219 28.4311 20.98 29.1931C19.138 29.9552 17.1638 30.3466 15.1704 30.3449C13.177 30.3433 11.2035 29.9486 9.3628 29.1835C7.52209 28.4183 5.8503 27.2978 4.44308 25.8859ZM39.1434 39.1414C39.6909 38.5892 39.9981 37.8431 39.9981 37.0656C39.9981 36.288 39.6909 35.5419 39.1434 34.9897L29.2514 25.0977C28.682 25.9 28.0462 26.6529 27.3504 27.3484C26.6553 28.0448 25.9022 28.6808 25.0991 29.2493L34.9911 39.1414C35.5422 39.6912 36.2888 40 37.0673 40C37.8457 40 38.5923 39.6912 39.1434 39.1414ZM23.4637 7.46169C19.645 7.74849 17.2336 6.76255 16.0938 4.44661C16.0084 4.27325 15.8762 4.12726 15.7122 4.02517C15.5481 3.92308 15.3587 3.86897 15.1655 3.86897C14.9722 3.86897 14.7829 3.92308 14.6188 4.02517C14.4547 4.12726 14.3225 4.27325 14.2371 4.44661C13.0974 6.76255 10.6865 7.74849 6.86722 7.46153C6.60976 7.44242 6.35444 7.52016 6.15132 7.67953C5.9482 7.8389 5.81194 8.06839 5.76926 8.32302C5.09558 12.3657 5.72551 16.2938 7.59254 19.6831C9.26441 22.7195 11.8082 25.0965 14.7548 26.3736C14.8845 26.4301 15.0244 26.4593 15.1659 26.4593C15.3073 26.4593 15.4472 26.4301 15.5769 26.3736C18.5235 25.0965 21.0673 22.7195 22.7392 19.6831C24.6064 16.2938 25.2362 12.3657 24.5625 8.32302C24.5202 8.06809 24.384 7.83825 24.1807 7.67879C23.9773 7.51933 23.7216 7.44182 23.4639 7.46153L23.4637 7.46169ZM15.1652 24.2868C19.5028 22.1924 23.4839 16.8486 22.6496 9.57247C22.5147 9.57611 22.3811 9.57794 22.2486 9.57794C19.0564 9.57794 16.685 8.64872 15.1653 6.80692C13.5827 8.72575 11.0746 9.65247 7.6816 9.57255C6.84707 16.8486 10.8282 22.1924 15.1652 24.2868ZM19.5693 13.205C19.6537 13.0982 19.7162 12.9757 19.7533 12.8447C19.7903 12.7137 19.8011 12.5766 19.785 12.4414C19.7689 12.3062 19.7263 12.1755 19.6596 12.0568C19.5929 11.9381 19.5034 11.8338 19.3963 11.7497C19.2892 11.6657 19.1665 11.6037 19.0353 11.5672C18.9041 11.5306 18.7671 11.5204 18.6319 11.537C18.4968 11.5536 18.3662 11.5967 18.2478 11.6639C18.1294 11.7311 18.0254 11.8209 17.9418 11.9284L14.5475 16.2556L12.2642 14.2173C12.163 14.1261 12.0448 14.0559 11.9164 14.0105C11.788 13.9651 11.6519 13.9456 11.5159 13.9529C11.3799 13.9603 11.2467 13.9945 11.124 14.0535C11.0012 14.1125 10.8914 14.1951 10.8006 14.2967C10.7099 14.3983 10.6402 14.5168 10.5954 14.6454C10.5506 14.774 10.5317 14.9102 10.5397 15.0462C10.5477 15.1821 10.5824 15.3152 10.642 15.4377C10.7015 15.5601 10.7847 15.6696 10.8867 15.7599L13.9922 18.5328C14.182 18.7017 14.4272 18.7951 14.6813 18.7951C14.7117 18.7954 14.7422 18.7942 14.7725 18.7914C14.9133 18.7789 15.0501 18.7377 15.1743 18.6702C15.2986 18.6028 15.4076 18.5105 15.4948 18.3992L19.5693 13.205Z" fill="url(#paint0_radial_2561_996)"/>
</g>
<defs>
<radialGradient id="paint0_radial_2561_996" cx="0" cy="0" r="1" gradientUnits="userSpaceOnUse" gradientTransform="translate(29.5703 37.7734) rotate(-134.702) scale(53.1442 53.1395)">
<stop stop-color="white" stop-opacity="0"/>
<stop offset="1" stop-color="white" stop-opacity="0.35"/>
</radialGradient>
<clipPath id="clip0_2561_996">
<rect width="40" height="40" fill="white"/>
</clipPath>
</defs>
</svg>
