<svg width="15" height="16" viewBox="0 0 15 16" fill="none" xmlns="http://www.w3.org/2000/svg">
<path d="M7.39385 5.71567C7.59921 5.71567 7.76572 5.54918 7.76572 5.3438C7.76572 5.13842 7.59921 4.97192 7.39385 4.97192C7.18847 4.97192 7.02197 5.13842 7.02197 5.3438C7.02197 5.54918 7.18847 5.71567 7.39385 5.71567Z" stroke="#262A38" stroke-width="0.5" stroke-linecap="round" stroke-linejoin="round"/>
<path d="M7.5 10.975V8" stroke="#262A38" stroke-linecap="round" stroke-linejoin="round"/>
<path d="M0.962648 5.62558C1.4472 3.55987 3.06012 1.94695 5.12583 1.4624C6.61766 1.11247 8.17025 1.11247 9.66208 1.4624C11.7278 1.94695 13.3407 3.55987 13.8252 5.62558C14.1752 7.11741 14.1752 8.67 13.8252 10.1618C13.3407 12.2275 11.7278 13.8405 9.66208 14.325C8.17025 14.6749 6.61766 14.6749 5.12583 14.325C3.06013 13.8405 1.4472 12.2275 0.962648 10.1618C0.612711 8.67 0.612711 7.11741 0.962648 5.62558Z" stroke="#262A38"/>
</svg>
