<svg width="64" height="64" viewBox="0 0 64 64" fill="none" xmlns="http://www.w3.org/2000/svg">
<path d="M41.3454 6.02058C37.9436 1.83573 31.8868 0.352626 31.0052 0C30.1289 0.347441 24.212 1.99649 20.7894 6.03614C15.3808 5.40867 9.9617 8.6964 9.08014 9.07495C8.71195 9.93577 5.69389 15.2978 6.12948 20.5664C1.86166 23.9475 0.352626 30.1029 0 30.9949C0.347441 31.8765 2.02243 37.8866 6.13987 41.2987C5.62129 46.6194 8.70677 52.0539 9.08014 52.9251C9.95651 53.2985 15.303 56.5551 20.6546 55.9794C24.0512 60.1643 30.1132 61.6474 30.9949 62C31.866 61.6525 37.7829 60.0036 41.2107 55.9639C46.6192 56.5914 52.0384 53.3037 52.9147 52.9251C53.2881 52.0591 56.3062 46.7023 55.8706 41.4336C60.1384 38.0474 61.6474 31.892 62 31.0052C61.6474 30.1236 59.9725 24.1135 55.8602 20.7013C56.3787 15.3807 53.2673 9.94614 52.9147 9.07495C52.0436 8.70158 46.7074 5.46052 41.3454 6.02058Z" fill="#B98B50"/>
<path d="M41.3454 6.02058C37.9436 1.83573 31.8868 0.352626 31.0052 0C30.1289 0.347441 24.212 1.99649 20.7894 6.03614C15.3808 5.40867 9.9617 8.6964 9.08014 9.07495C8.71195 9.93577 5.69389 15.2978 6.12948 20.5664C1.86166 23.9475 0.352626 30.1029 0 30.9949C0.347441 31.8765 2.02243 37.8866 6.13987 41.2987C5.62129 46.6194 8.70677 52.0539 9.08014 52.9251C9.95651 53.2985 15.303 56.5551 20.6546 55.9794C24.0512 60.1643 30.1132 61.6474 30.9949 62C31.866 61.6525 37.7829 60.0036 41.2107 55.9639C46.6192 56.5914 52.0384 53.3037 52.9147 52.9251C53.2881 52.0591 56.3062 46.7023 55.8706 41.4336C60.1384 38.0474 61.6474 31.892 62 31.0052C61.6474 30.1236 59.9725 24.1135 55.8602 20.7013C56.3787 15.3807 53.2673 9.94614 52.9147 9.07495C52.0436 8.70158 46.7074 5.46052 41.3454 6.02058Z" fill="url(#paint0_linear_2540_200)" fill-opacity="0.2"/>
<path d="M35.5123 18.5455V44H30.9012V23.0323H30.752L24.7986 26.8356V22.6097L31.1249 18.5455H35.5123Z" fill="white"/>
<defs>
<linearGradient id="paint0_linear_2540_200" x1="55.7253" y1="27.982" x2="0.238554" y2="30.8341" gradientUnits="userSpaceOnUse">
<stop stop-color="white" stop-opacity="0"/>
<stop offset="1" stop-color="white"/>
</linearGradient>
</defs>
</svg>
