<svg width="64" height="64" viewBox="0 0 64 64" fill="none" xmlns="http://www.w3.org/2000/svg">
<path d="M41.3454 6.02058C37.9436 1.83573 31.8868 0.352626 31.0052 0C30.1289 0.347441 24.212 1.99649 20.7894 6.03614C15.3808 5.40867 9.9617 8.6964 9.08014 9.07495C8.71195 9.93577 5.69389 15.2978 6.12948 20.5664C1.86166 23.9475 0.352626 30.1029 0 30.9949C0.347441 31.8765 2.02243 37.8866 6.13987 41.2987C5.62129 46.6194 8.70677 52.0539 9.08014 52.9251C9.95651 53.2985 15.303 56.5551 20.6546 55.9794C24.0512 60.1643 30.1132 61.6474 30.9949 62C31.866 61.6525 37.7829 60.0036 41.2107 55.9639C46.6192 56.5914 52.0384 53.3037 52.9147 52.9251C53.2881 52.0591 56.3062 46.7023 55.8706 41.4336C60.1384 38.0474 61.6474 31.892 62 31.0052C61.6474 30.1236 59.9725 24.1135 55.8602 20.7013C56.3787 15.3807 53.2673 9.94614 52.9147 9.07495C52.0436 8.70158 46.7074 5.46052 41.3454 6.02058Z" fill="#B98B50"/>
<path d="M41.3454 6.02058C37.9436 1.83573 31.8868 0.352626 31.0052 0C30.1289 0.347441 24.212 1.99649 20.7894 6.03614C15.3808 5.40867 9.9617 8.6964 9.08014 9.07495C8.71195 9.93577 5.69389 15.2978 6.12948 20.5664C1.86166 23.9475 0.352626 30.1029 0 30.9949C0.347441 31.8765 2.02243 37.8866 6.13987 41.2987C5.62129 46.6194 8.70677 52.0539 9.08014 52.9251C9.95651 53.2985 15.303 56.5551 20.6546 55.9794C24.0512 60.1643 30.1132 61.6474 30.9949 62C31.866 61.6525 37.7829 60.0036 41.2107 55.9639C46.6192 56.5914 52.0384 53.3037 52.9147 52.9251C53.2881 52.0591 56.3062 46.7023 55.8706 41.4336C60.1384 38.0474 61.6474 31.892 62 31.0052C61.6474 30.1236 59.9725 24.1135 55.8602 20.7013C56.3787 15.3807 53.2673 9.94614 52.9147 9.07495C52.0436 8.70158 46.7074 5.46052 41.3454 6.02058Z" fill="url(#paint0_linear_2540_208)" fill-opacity="0.2"/>
<path d="M23.141 44V40.669L31.978 32.006C32.8231 31.1526 33.5274 30.3944 34.0909 29.7315C34.6543 29.0687 35.0769 28.4265 35.3587 27.805C35.6404 27.1836 35.7812 26.5207 35.7812 25.8164C35.7812 25.0127 35.5989 24.3249 35.2344 23.7532C34.8698 23.1732 34.3685 22.7257 33.7305 22.4109C33.0924 22.096 32.3674 21.9386 31.5554 21.9386C30.7185 21.9386 29.9852 22.1126 29.3555 22.4606C28.7257 22.8003 28.2368 23.285 27.8888 23.9148C27.5491 24.5445 27.3792 25.2944 27.3792 26.1644H22.9918C22.9918 24.5487 23.3605 23.1442 24.098 21.951C24.8354 20.7578 25.8505 19.8339 27.1431 19.1793C28.444 18.5247 29.9355 18.1974 31.6175 18.1974C33.3244 18.1974 34.8242 18.5165 36.1168 19.1545C37.4094 19.7925 38.412 20.6667 39.1246 21.777C39.8455 22.8873 40.206 24.1551 40.206 25.5803C40.206 26.5331 40.0237 27.4695 39.6591 28.3892C39.2945 29.3089 38.6523 30.3281 37.7326 31.4467C36.8211 32.5653 35.5409 33.9201 33.892 35.511L29.5046 39.973V40.147H40.5912V44H23.141Z" fill="white"/>
<defs>
<linearGradient id="paint0_linear_2540_208" x1="55.7253" y1="27.982" x2="0.238554" y2="30.8341" gradientUnits="userSpaceOnUse">
<stop stop-color="white" stop-opacity="0"/>
<stop offset="1" stop-color="white"/>
</linearGradient>
</defs>
</svg>
