<svg width="64" height="64" viewBox="0 0 64 64" fill="none" xmlns="http://www.w3.org/2000/svg">
<path d="M41.3454 6.02058C37.9436 1.83573 31.8868 0.352626 31.0052 0C30.1289 0.347441 24.212 1.99649 20.7894 6.03614C15.3808 5.40867 9.9617 8.6964 9.08014 9.07495C8.71195 9.93577 5.69389 15.2978 6.12948 20.5664C1.86166 23.9475 0.352626 30.1029 0 30.9949C0.347441 31.8765 2.02243 37.8866 6.13987 41.2987C5.62129 46.6194 8.70677 52.0539 9.08014 52.9251C9.95651 53.2985 15.303 56.5551 20.6546 55.9794C24.0512 60.1643 30.1132 61.6474 30.9949 62C31.866 61.6525 37.7829 60.0036 41.2107 55.9639C46.6192 56.5914 52.0384 53.3037 52.9147 52.9251C53.2881 52.0591 56.3062 46.7023 55.8706 41.4336C60.1384 38.0474 61.6474 31.892 62 31.0052C61.6474 30.1236 59.9725 24.1135 55.8602 20.7013C56.3787 15.3807 53.2673 9.94614 52.9147 9.07495C52.0436 8.70158 46.7074 5.46052 41.3454 6.02058Z" fill="#B98B50"/>
<path d="M41.3454 6.02058C37.9436 1.83573 31.8868 0.352626 31.0052 0C30.1289 0.347441 24.212 1.99649 20.7894 6.03614C15.3808 5.40867 9.9617 8.6964 9.08014 9.07495C8.71195 9.93577 5.69389 15.2978 6.12948 20.5664C1.86166 23.9475 0.352626 30.1029 0 30.9949C0.347441 31.8765 2.02243 37.8866 6.13987 41.2987C5.62129 46.6194 8.70677 52.0539 9.08014 52.9251C9.95651 53.2985 15.303 56.5551 20.6546 55.9794C24.0512 60.1643 30.1132 61.6474 30.9949 62C31.866 61.6525 37.7829 60.0036 41.2107 55.9639C46.6192 56.5914 52.0384 53.3037 52.9147 52.9251C53.2881 52.0591 56.3062 46.7023 55.8706 41.4336C60.1384 38.0474 61.6474 31.892 62 31.0052C61.6474 30.1236 59.9725 24.1135 55.8602 20.7013C56.3787 15.3807 53.2673 9.94614 52.9147 9.07495C52.0436 8.70158 46.7074 5.46052 41.3454 6.02058Z" fill="url(#paint0_linear_2540_216)" fill-opacity="0.2"/>
<path d="M31.2798 44.348C29.49 44.348 27.8991 44.0414 26.5071 43.4283C25.1233 42.8151 24.0296 41.9616 23.2258 40.8679C22.4221 39.7741 21.9953 38.5105 21.9456 37.0771H26.6189C26.6604 37.7648 26.8882 38.3655 27.3025 38.8793C27.7168 39.3847 28.2678 39.7783 28.9556 40.06C29.6433 40.3417 30.4139 40.4826 31.2674 40.4826C32.1788 40.4826 32.9867 40.3252 33.691 40.0103C34.3953 39.6871 34.9463 39.2397 35.3441 38.668C35.7418 38.0962 35.9365 37.4375 35.9282 36.6918C35.9365 35.9212 35.7377 35.2417 35.3316 34.6534C34.9256 34.0651 34.3373 33.6052 33.5667 33.2738C32.8044 32.9424 31.8847 32.7766 30.8075 32.7766H28.5578V29.2219H30.8075C31.6941 29.2219 32.4688 29.0687 33.1317 28.7621C33.8029 28.4555 34.329 28.0246 34.7102 27.4695C35.0913 26.906 35.2778 26.2556 35.2695 25.5181C35.2778 24.7972 35.1162 24.1716 34.7848 23.6413C34.4616 23.1027 34.0017 22.6843 33.4051 22.386C32.8168 22.0877 32.125 21.9386 31.3295 21.9386C30.5506 21.9386 29.8297 22.0794 29.1669 22.3611C28.504 22.6429 27.9695 23.0447 27.5635 23.5668C27.1575 24.0805 26.9421 24.6937 26.9172 25.4062H22.4801C22.5132 23.9811 22.9234 22.7299 23.7105 21.6527C24.506 20.5672 25.5666 19.7221 26.8924 19.1172C28.2181 18.504 29.7055 18.1974 31.3544 18.1974C33.053 18.1974 34.5279 18.5165 35.7791 19.1545C37.0385 19.7842 38.0122 20.6335 38.6999 21.7024C39.3876 22.7713 39.7315 23.9521 39.7315 25.2447C39.7398 26.6781 39.3172 27.8796 38.4637 28.8491C37.6186 29.8185 36.5082 30.4524 35.1328 30.7507V30.9496C36.9225 31.1982 38.2939 31.861 39.2468 32.9382C40.2079 34.0071 40.6844 35.337 40.6761 36.9279C40.6761 38.3531 40.2701 39.6291 39.4581 40.756C38.6543 41.8746 37.544 42.753 36.1271 43.391C34.7185 44.029 33.1027 44.348 31.2798 44.348Z" fill="white"/>
<defs>
<linearGradient id="paint0_linear_2540_216" x1="55.7253" y1="27.982" x2="0.238554" y2="30.8341" gradientUnits="userSpaceOnUse">
<stop stop-color="white" stop-opacity="0"/>
<stop offset="1" stop-color="white"/>
</linearGradient>
</defs>
</svg>
